<?xml version="1.0" standalone="no"?>
<!DOCTYPE svg PUBLIC "-//W3C//DTD SVG 20010904//EN"
 "http://www.w3.org/TR/2001/REC-SVG-20010904/DTD/svg10.dtd">
<svg version="1.0" xmlns="http://www.w3.org/2000/svg"
 width="871.000000pt" height="286.000000pt" viewBox="0 0 871.000000 286.000000"
 preserveAspectRatio="xMidYMid meet">

<g transform="translate(0.000000,286.000000) scale(0.100000,-0.100000)"
fill="#000000" stroke="none">
<path d="M928 2638 c-151 -175 -212 -260 -261 -367 -30 -62 -32 -73 -32 -181
0 -113 1 -116 37 -185 46 -88 96 -149 173 -213 50 -41 195 -132 211 -132 16 0
341 -169 395 -206 65 -43 152 -128 195 -189 l21 -30 30 65 c69 145 65 313 -9
462 -52 104 -126 176 -264 257 -260 151 -329 213 -399 350 -60 120 -77 246
-51 369 7 34 12 62 11 62 -2 0 -28 -28 -57 -62z"/>
<path d="M443 2107 c-12 -18 -58 -86 -103 -152 -139 -204 -177 -300 -167 -421
6 -85 46 -164 116 -234 92 -91 332 -245 555 -357 128 -64 209 -121 231 -163 8
-16 15 -50 15 -75 0 -55 -29 -90 -84 -100 -53 -10 -95 1 -197 52 -240 120
-432 249 -582 392 l-49 46 4 -215 c3 -210 4 -216 30 -270 15 -31 40 -68 56
-83 42 -40 275 -177 448 -263 142 -71 155 -75 235 -81 142 -10 265 35 435 158
201 145 284 277 272 433 -7 84 -32 128 -125 219 -91 90 -94 92 -448 312 -330
205 -435 278 -506 348 -118 117 -161 265 -125 422 8 33 14 61 13 62 -1 1 -12
-13 -24 -30z"/>
<path d="M2397 1628 c-30 -69 -227 -508 -276 -612 -28 -60 -51 -110 -51 -112
0 -2 33 -4 73 -4 l72 0 35 88 35 87 195 0 194 0 35 -87 35 -88 73 0 73 0 -14
33 c-40 93 -190 424 -228 507 -25 52 -57 123 -73 158 l-28 62 -68 0 c-68 0
-69 0 -82 -32z m152 -266 c35 -81 66 -155 69 -164 4 -17 -7 -18 -137 -18 -77
0 -141 3 -141 8 -1 12 134 322 140 322 3 0 34 -67 69 -148z"/>
<path d="M2940 1280 l0 -380 70 0 70 0 0 380 0 380 -70 0 -70 0 0 -380z"/>
<path d="M3240 1280 l0 -380 65 0 65 0 0 248 c1 223 2 245 16 227 8 -11 65
-102 127 -203 l112 -183 35 3 c34 3 38 8 155 203 l120 200 6 -155 c4 -85 7
-197 8 -247 l1 -93 60 0 60 0 0 380 0 380 -54 0 -54 0 -85 -142 c-82 -139
-124 -211 -179 -306 -14 -26 -30 -48 -35 -49 -5 -2 -76 109 -158 247 l-150
249 -57 1 -58 0 0 -380z"/>
<path d="M4560 1633 c-72 -37 -111 -88 -118 -152 -7 -77 5 -118 46 -159 38
-38 62 -48 266 -108 106 -31 146 -63 146 -117 0 -79 -78 -121 -212 -115 -78 3
-132 21 -229 75 -8 5 -40 -67 -34 -78 13 -20 94 -59 155 -73 121 -29 255 -15
335 34 53 33 85 95 85 164 0 121 -54 164 -272 220 -114 30 -152 47 -174 81
-24 36 -12 93 25 127 61 55 211 58 315 6 42 -21 48 -19 64 29 13 38 9 42 -71
72 -46 17 -80 21 -166 21 -98 0 -112 -3 -161 -27z"/>
<path d="M5110 1407 c0 -275 7 -322 57 -398 50 -75 146 -119 264 -119 135 0
236 55 286 157 l28 58 3 278 3 277 -50 0 -51 0 0 -237 c-1 -250 -7 -308 -43
-360 -66 -97 -242 -110 -328 -24 -57 56 -62 86 -66 369 l-5 252 -49 0 -49 0 0
-253z"/>
<path d="M5930 1280 l0 -380 50 0 50 0 0 272 c0 166 4 268 9 263 5 -6 68 -107
139 -225 109 -181 134 -215 155 -218 23 -3 37 16 164 229 l138 231 3 -276 2
-276 50 0 50 0 0 380 0 380 -43 0 -43 0 -142 -242 c-77 -134 -149 -255 -159
-269 l-18 -27 -160 269 -160 269 -42 0 -43 0 0 -380z"/>
<path d="M6920 1280 l0 -380 55 0 55 0 0 380 0 380 -55 0 -55 0 0 -380z"/>
<path d="M7210 1280 l0 -380 55 0 55 0 2 279 3 280 225 -279 225 -279 43 -1
42 0 0 380 0 380 -50 0 -50 0 0 -287 -1 -288 -22 30 c-12 16 -38 48 -57 71
-19 23 -113 139 -209 258 l-174 216 -44 0 -43 0 0 -380z"/>
<path d="M8145 1644 c-53 -19 -108 -65 -129 -108 -23 -48 -21 -140 3 -180 38
-60 93 -87 285 -138 68 -17 98 -31 124 -55 31 -30 34 -37 29 -73 -6 -49 -19
-65 -70 -92 -33 -17 -55 -19 -131 -16 -87 3 -136 18 -237 75 -8 5 -40 -67 -34
-78 13 -20 94 -59 155 -73 121 -29 255 -15 335 34 54 33 85 94 85 166 0 111
-59 163 -237 208 -188 48 -218 68 -218 143 0 38 5 49 32 73 63 57 212 61 317
8 42 -21 48 -19 64 30 10 29 9 34 -11 46 -72 46 -272 62 -362 30z"/>
<path d="M2097 693 c-4 -3 -7 -53 -7 -110 0 -85 3 -103 15 -103 11 0 15 12 15
50 l0 50 55 0 55 0 0 -50 c0 -38 4 -50 15 -50 12 0 15 19 15 110 0 91 -3 110
-15 110 -11 0 -15 -12 -15 -50 l0 -50 -55 0 -55 0 0 50 c0 46 -7 60 -23 43z"/>
<path d="M2320 612 c0 -80 2 -91 23 -110 15 -14 36 -22 60 -22 66 0 92 48 85
160 -2 41 -7 55 -18 55 -12 0 -16 -16 -18 -70 -1 -38 -4 -80 -7 -91 -6 -28
-43 -37 -72 -18 -21 13 -23 22 -23 99 0 69 -3 85 -15 85 -12 0 -15 -16 -15
-88z"/>
<path d="M2540 589 c0 -102 1 -109 20 -109 18 0 20 7 21 68 l1 67 30 -67 c17
-38 36 -68 43 -68 7 0 26 29 41 65 16 36 32 65 37 65 5 0 7 -28 6 -62 -2 -52
0 -64 14 -66 15 -3 17 9 17 107 0 88 -3 111 -14 111 -18 0 -27 -14 -60 -90
-16 -36 -32 -69 -36 -74 -5 -4 -18 14 -30 42 -39 89 -55 116 -72 118 -16 2
-18 -9 -18 -107z"/>
<path d="M2876 655 c-70 -187 -67 -175 -46 -175 10 0 22 9 25 20 5 16 15 20
55 20 40 0 50 -4 55 -20 6 -19 35 -29 35 -12 0 4 -16 53 -36 109 -29 81 -40
101 -55 100 -11 -1 -23 -16 -33 -42z m53 -52 c6 -21 11 -41 11 -45 0 -9 -54
-11 -62 -2 -8 7 23 84 33 84 4 0 13 -17 18 -37z"/>
<path d="M3050 590 c0 -91 3 -110 15 -110 12 0 15 15 15 75 0 41 3 75 8 75 4
0 29 -34 56 -75 32 -49 55 -75 67 -75 17 0 19 9 19 104 0 58 -4 107 -8 110
-20 12 -31 -15 -34 -83 l-3 -73 -52 81 c-73 113 -83 109 -83 -29z"/>
<path d="M3375 691 c-3 -2 -5 -51 -5 -108 0 -94 2 -104 18 -101 12 2 17 13 18
43 1 54 19 55 51 1 17 -28 35 -46 46 -46 17 0 17 3 -6 43 l-25 42 24 18 c58
43 10 120 -73 115 -24 -1 -46 -4 -48 -7z m103 -33 c26 -26 -1 -68 -43 -68 -30
0 -40 31 -26 78 3 8 59 0 69 -10z"/>
<path d="M3580 590 l0 -110 55 0 c30 0 55 5 55 10 0 6 -18 10 -40 10 l-40 0 0
40 0 40 41 0 c24 0 38 4 34 10 -3 6 -22 10 -41 10 -32 0 -34 2 -34 35 0 34 1
35 40 35 29 0 40 4 40 15 0 12 -13 15 -55 15 l-55 0 0 -110z"/>
<path d="M3774 690 c-26 -10 -38 -53 -24 -80 6 -11 23 -23 38 -26 68 -16 92
-55 47 -76 -21 -10 -29 -8 -48 10 -41 39 -66 21 -27 -18 42 -42 130 -15 130
40 0 32 -24 54 -72 65 -57 14 -58 65 -1 65 13 0 26 -7 29 -15 6 -16 44 -21 44
-7 0 17 -40 45 -67 47 -15 2 -38 -1 -49 -5z"/>
<path d="M3984 681 c-90 -55 -52 -201 52 -201 76 0 123 54 111 127 -13 75 -97
114 -163 74z m111 -36 c70 -69 -32 -186 -105 -120 -28 25 -28 97 0 125 28 28
75 26 105 -5z"/>
<path d="M4200 610 c0 -107 14 -130 79 -130 62 0 81 32 81 136 0 70 -2 82 -15
78 -11 -5 -15 -24 -15 -80 0 -61 -4 -78 -20 -94 -26 -26 -36 -25 -65 5 -22 21
-25 33 -25 100 0 43 -4 75 -10 75 -6 0 -10 -37 -10 -90z"/>
<path d="M4428 694 c-5 -4 -8 -54 -8 -111 0 -85 3 -103 15 -103 11 0 15 12 15
45 0 32 4 45 14 45 8 0 26 -20 40 -45 18 -30 34 -45 47 -45 22 0 21 4 -14 54
l-20 29 21 16 c58 44 28 111 -54 118 -27 3 -52 1 -56 -3z m100 -58 c4 -33 -10
-46 -50 -46 -26 0 -28 3 -28 41 l0 40 38 -3 c33 -3 37 -6 40 -32z"/>
<path d="M4664 681 c-90 -55 -52 -201 52 -201 40 0 89 22 97 45 9 21 -21 20
-45 -2 -46 -41 -119 -5 -121 60 -2 72 70 111 126 67 45 -36 65 -21 24 18 -33
31 -94 37 -133 13z"/>
<path d="M4877 694 c-4 -4 -7 -54 -7 -111 l0 -103 60 0 c33 0 60 4 60 10 0 6
-18 10 -40 10 l-40 0 0 40 c0 39 1 40 35 40 19 0 35 5 35 10 0 6 -16 10 -35
10 -33 0 -35 2 -35 35 0 34 1 35 41 35 28 0 39 4 37 13 -5 13 -99 23 -111 11z"/>
<path d="M5060 680 c-41 -41 -18 -88 53 -105 38 -10 52 -38 28 -59 -23 -21
-34 -20 -56 4 -21 23 -45 26 -45 6 0 -43 95 -61 130 -26 38 38 19 83 -40 101
-51 15 -67 33 -50 54 16 19 39 19 61 -1 10 -9 26 -14 36 -12 16 3 15 7 -9 31
-33 33 -79 36 -108 7z"/>
<path d="M5381 687 c-57 -29 -80 -98 -51 -153 29 -54 115 -71 164 -33 50 39
18 56 -34 18 -26 -20 -32 -21 -60 -9 -51 21 -66 87 -29 134 24 31 72 35 101 9
24 -22 48 -25 48 -7 0 19 -59 54 -90 54 -14 0 -36 -6 -49 -13z"/>
<path d="M5614 678 c-58 -46 -63 -117 -12 -168 24 -24 38 -30 75 -30 36 0 50
6 74 29 24 25 29 37 29 78 -1 51 -11 70 -50 95 -35 22 -84 20 -116 -4z m113
-30 c15 -14 23 -33 23 -55 0 -46 -13 -68 -49 -82 -24 -10 -34 -10 -59 3 -33
17 -42 34 -42 75 0 70 78 106 127 59z"/>
<path d="M5830 590 c0 -91 3 -110 15 -110 12 0 15 15 15 75 0 41 3 75 8 75 4
-1 29 -34 55 -75 66 -104 77 -100 77 25 0 55 0 103 0 108 0 4 -6 7 -12 7 -9 0
-15 -25 -18 -78 l-5 -78 -53 81 c-73 110 -82 107 -82 -30z"/>
<path d="M6082 684 c-25 -17 -30 -65 -8 -83 7 -6 31 -17 52 -25 41 -14 54 -37
34 -61 -17 -21 -37 -19 -57 5 -20 23 -43 26 -43 7 0 -24 35 -47 71 -47 40 0
52 7 68 38 18 33 -7 66 -61 84 -35 12 -43 19 -43 39 0 18 6 25 26 27 14 2 31
-4 39 -12 16 -20 40 -21 40 -2 0 20 -39 46 -70 46 -14 0 -36 -7 -48 -16z"/>
<path d="M6260 612 c0 -80 2 -91 23 -110 29 -28 86 -29 118 -3 22 18 24 27 24
108 0 72 -3 88 -15 88 -12 0 -16 -17 -18 -80 -2 -67 -6 -83 -23 -97 -27 -23
-35 -22 -59 2 -17 17 -20 33 -20 100 0 64 -3 80 -15 80 -12 0 -15 -16 -15 -88z"/>
<path d="M6487 693 c-4 -3 -7 -53 -7 -110 l0 -103 55 0 c62 0 75 17 18 22
l-38 3 -3 98 c-3 89 -8 108 -25 90z"/>
<path d="M6617 694 c-15 -16 -5 -24 28 -24 l35 0 0 -95 c0 -78 3 -95 15 -95
12 0 15 17 15 95 l0 95 26 0 c16 0 24 5 22 13 -5 13 -129 23 -141 11z"/>
<path d="M6875 690 c-4 -6 -10 -23 -15 -38 -4 -15 -20 -58 -34 -97 -31 -83
-30 -75 -10 -75 9 0 18 9 21 20 4 17 14 20 54 20 38 0 51 -4 59 -20 14 -25 45
-28 35 -2 -4 9 -15 42 -25 72 -11 30 -26 72 -35 93 -15 36 -37 48 -50 27z m54
-127 c1 -8 -12 -13 -34 -13 -19 0 -35 2 -35 4 0 3 17 57 27 86 3 10 11 2 23
-25 10 -22 19 -46 19 -52z"/>
<path d="M7040 590 c0 -90 3 -110 15 -110 11 0 15 18 17 81 l3 80 52 -80 c73
-113 84 -109 81 27 -3 125 -21 141 -28 25 l-5 -78 -53 83 c-73 113 -82 110
-82 -28z"/>
<path d="M7292 664 c-32 -32 -34 -38 -30 -86 4 -42 11 -56 34 -75 38 -30 101
-31 138 -2 31 24 33 39 6 39 -11 0 -20 -4 -20 -8 0 -9 -44 -32 -60 -32 -5 0
-22 12 -39 26 -38 31 -41 78 -10 118 26 33 77 36 104 6 16 -17 45 -28 45 -16
0 33 -46 63 -99 64 -26 1 -42 -7 -69 -34z"/>
<path d="M7510 688 c0 -7 14 -35 30 -63 22 -36 30 -63 30 -97 0 -41 3 -48 20
-48 17 0 20 7 20 40 0 24 12 64 32 104 30 62 33 87 8 71 -5 -3 -22 -29 -36
-57 l-26 -51 -25 57 c-23 50 -53 75 -53 44z"/>
<path d="M7807 693 c-4 -3 -7 -53 -7 -110 l0 -103 55 0 c62 0 75 17 18 22
l-38 3 -3 98 c-3 89 -8 108 -25 90z"/>
<path d="M8320 693 c-8 -3 -27 -17 -42 -31 -23 -21 -28 -34 -28 -75 0 -42 4
-53 31 -78 39 -36 102 -40 143 -8 31 24 33 39 6 39 -11 0 -20 -4 -20 -8 0 -9
-44 -32 -60 -32 -5 0 -22 12 -39 26 -38 31 -41 78 -10 118 26 33 77 36 104 6
22 -24 50 -27 41 -4 -3 9 -6 17 -6 20 0 2 -13 10 -30 19 -29 15 -62 18 -90 8z"/>
<path d="M8030 586 l0 -106 55 0 c30 0 55 5 55 10 0 6 -16 10 -35 10 l-34 0
-3 92 c-3 79 -6 93 -20 96 -16 3 -18 -7 -18 -102z"/>
<path d="M7944 509 c-9 -15 11 -33 30 -26 9 4 13 13 10 22 -7 17 -30 20 -40 4z"/>
<path d="M8170 500 c0 -15 5 -20 18 -18 9 2 17 10 17 18 0 8 -8 16 -17 18 -13
2 -18 -3 -18 -18z"/>
<path d="M8507 514 c-14 -15 -6 -34 14 -34 14 0 19 5 17 17 -3 18 -20 27 -31
17z"/>
</g>
</svg>
